<svg width="24" height="24" viewBox="0 0 24 24" fill="none" xmlns="http://www.w3.org/2000/svg">
<rect width="24" height="24" rx="12" fill="#2E2E2E"/>
<path d="M18.2234 11.52C18.1264 11.4222 18.011 11.3446 17.8838 11.2916C17.7567 11.2386 17.6203 11.2113 17.4825 11.2113C17.3448 11.2113 17.2084 11.2386 17.0812 11.2916C16.9541 11.3446 16.8387 11.4222 16.7417 11.52L13.3086 14.9635V7.04348C13.3086 6.76673 13.1987 6.50132 13.003 6.30563C12.8073 6.10994 12.5419 6 12.2651 6C11.9884 6 11.723 6.10994 11.5273 6.30563C11.3316 6.50132 11.2217 6.76673 11.2217 7.04348V14.9635L7.78862 11.52C7.59213 11.3235 7.32563 11.2131 7.04775 11.2131C6.76987 11.2131 6.50337 11.3235 6.30688 11.52C6.11039 11.7165 6 11.983 6 12.2609C6 12.5387 6.11039 12.8052 6.30688 13.0017L11.5243 18.2191C11.6235 18.3141 11.7405 18.3886 11.8686 18.4383C11.9935 18.4935 12.1286 18.522 12.2651 18.522C12.4017 18.522 12.5368 18.4935 12.6617 18.4383C12.7897 18.3886 12.9068 18.3141 13.006 18.2191L18.2234 13.0017C18.3212 12.9047 18.3988 12.7893 18.4518 12.6622C18.5048 12.535 18.5321 12.3986 18.5321 12.2609C18.5321 12.1231 18.5048 11.9867 18.4518 11.8596C18.3988 11.7324 18.3212 11.617 18.2234 11.52Z" fill="white"/>
</svg>
