<svg width="109" height="76" viewBox="0 0 109 76" fill="none" xmlns="http://www.w3.org/2000/svg">
<path d="M18.7982 28.819L0.75 74.75H90.991L107.75 22.4397H96.1476H53.6054L49.738 28.819H18.7982Z" fill="#FF8CBC"/>
<path d="M32.9789 0.75H0.75V74.75L12.3524 14.7845H90.991V5.85345H32.9789V0.75Z" fill="#FF8CBC"/>
<path d="M0.75 74.75L18.7982 28.819H49.738L53.6054 22.4397H96.1476V14.7845H90.991H12.3524L0.75 74.75Z" fill="#FFD7E8"/>
<path d="M0.75 74.75L18.7982 28.819H49.738L53.6054 22.4397H96.1476M0.75 74.75H90.991L107.75 22.4397H96.1476M0.75 74.75L12.3524 14.7845M0.75 74.75V0.75H32.9789V5.85345H90.991V14.7845M90.991 14.7845H12.3524M90.991 14.7845H96.1476M12.3524 14.7845H96.1476M96.1476 14.7845V22.4397" stroke="#2E2E2E" stroke-width="1.5"/>
</svg>
